<svg xmlns="http://www.w3.org/2000/svg" xmlns:xlink="http://www.w3.org/1999/xlink" viewBox="0 0 134.77 88.63"><defs><style>.cls-1{fill:none;}.cls-2{isolation:isolate;}.cls-3{fill:#8f7050;opacity:0.86;mix-blend-mode:multiply;}.cls-4{fill:#b3ada6;}.cls-5{fill:#d1cac2;}.cls-6{fill:#3b3938;}.cls-7{fill:#00858f;}.cls-8{fill:#c5e1e3;}.cls-9{opacity:0.11;}.cls-10{opacity:0.18;}.cls-11{mix-blend-mode:overlay;}.cls-12{clip-path:url(#clip-path);}.cls-13{fill:#5ba7b0;}</style><clipPath id="clip-path"><polygon class="cls-1" points="125.26 72.48 25.94 72.48 31.53 36.85 119.66 36.85 125.26 72.48"/></clipPath></defs><title>solar_panel</title><g class="cls-2"><g id="Layer_2" data-name="Layer 2"><g id="SolarPanel"><g id="SolarPanel-2" data-name="SolarPanel"><polygon class="cls-3" points="134.77 55.48 127.85 75.91 121.5 48.72 130.86 48.72 134.77 55.48"/><polygon class="cls-4" points="127.85 75.91 23.06 75.91 29.7 35.56 121.5 35.56 127.86 74.29 127.85 75.91"/><polygon class="cls-5" points="121.71 36.85 26.92 53.72 29.7 35.56 121.5 35.56 121.71 36.85"/><polygon class="cls-6" points="127.85 75.91 23.06 75.91 23.33 74.29 127.86 74.29 127.85 75.91"/><polygon class="cls-7" points="125.26 72.48 25.94 72.48 31.53 36.85 119.66 36.85 125.26 72.48"/><polygon class="cls-8" points="58.08 72.48 57.47 72.48 59.52 36.85 60.05 36.85 58.08 72.48"/><polygon class="cls-8" points="93.72 72.48 93.11 72.48 91.14 36.85 91.68 36.85 93.72 72.48"/><g class="cls-9"><polygon class="cls-8" points="30.8 41.55 30.85 41.21 120.34 41.21 120.4 41.55 30.8 41.55"/><polygon class="cls-8" points="29.89 47.34 29.94 46.99 121.25 46.99 121.31 47.34 29.89 47.34"/><polygon class="cls-8" points="27.95 59.66 28.01 59.27 123.18 59.27 123.24 59.66 27.95 59.66"/><polygon class="cls-8" points="26.92 66.22 26.98 65.82 124.21 65.82 124.27 66.22 26.92 66.22"/></g><polygon class="cls-8" points="28.94 53.38 29 53 122.2 53 122.25 53.38 28.94 53.38"/><g class="cls-10"><polygon class="cls-8" points="59.56 36.85 59.94 36.85 57.95 72.48 57.52 72.48 59.56 36.85"/><polygon class="cls-8" points="53.31 36.85 53.69 36.85 50.9 72.48 50.48 72.48 53.31 36.85"/><polygon class="cls-8" points="47.05 36.85 47.43 36.85 43.85 72.48 43.43 72.48 47.05 36.85"/><polygon class="cls-8" points="40.8 36.85 41.18 36.85 36.8 72.48 36.38 72.48 40.8 36.85"/><polygon class="cls-8" points="34.54 36.85 34.92 36.85 29.75 72.48 29.33 72.48 34.54 36.85"/></g><g class="cls-10"><polygon class="cls-8" points="91.14 36.85 91.52 36.85 93.54 72.48 93.12 72.48 91.14 36.85"/><polygon class="cls-8" points="84.89 36.85 85.27 36.85 86.49 72.48 86.07 72.48 84.89 36.85"/><polygon class="cls-8" points="78.63 36.85 79.01 36.85 79.44 72.48 79.02 72.48 78.63 36.85"/><polygon class="cls-8" points="72.38 36.85 72.76 36.85 72.39 72.48 71.97 72.48 72.38 36.85"/><polygon class="cls-8" points="66.12 36.85 66.5 36.85 65.35 72.48 64.92 72.48 66.12 36.85"/></g><g class="cls-10"><polygon class="cls-8" points="116.3 36.85 116.67 36.85 121.89 72.48 121.47 72.48 116.3 36.85"/><polygon class="cls-8" points="110.04 36.85 110.42 36.85 114.84 72.48 114.42 72.48 110.04 36.85"/><polygon class="cls-8" points="103.79 36.85 104.17 36.85 107.8 72.48 107.37 72.48 103.79 36.85"/><polygon class="cls-8" points="97.53 36.85 97.91 36.85 100.75 72.48 100.32 72.48 97.53 36.85"/><polygon class="cls-8" points="91.28 36.85 91.66 36.85 93.7 72.48 93.27 72.48 91.28 36.85"/></g><path class="cls-8" d="M94,53.19a1.47,1.47,0,0,1-1.53,1.51,1.69,1.69,0,0,1-1.71-1.51,1.47,1.47,0,0,1,1.54-1.5A1.67,1.67,0,0,1,94,53.19Z"/><path class="cls-8" d="M60.47,53.27a1.71,1.71,0,0,1-1.71,1.57,1.49,1.49,0,0,1-1.53-1.57,1.69,1.69,0,0,1,1.7-1.56A1.5,1.5,0,0,1,60.47,53.27Z"/><g class="cls-11"><g class="cls-12"><polygon class="cls-13" points="21.03 88.63 0 45.68 86.14 0 113.97 29.76 21.03 88.63"/></g></g></g></g></g></g></svg>