<svg id="sun" xmlns="http://www.w3.org/2000/svg" xmlns:xlink="http://www.w3.org/1999/xlink" viewBox="0 0 68.32 68.32"><defs><radialGradient id="radial-gradient" cx="-20.13" cy="645.39" r="0.69" gradientTransform="matrix(48.4, 0, 0, -48.4, 1008.35, 31249.19)" gradientUnits="userSpaceOnUse"><stop offset="0" stop-color="#fbe82e"/><stop offset="1" stop-color="#f5841f"/></radialGradient><radialGradient id="radial-gradient-2" cx="-20.13" cy="645.44" r="1" xlink:href="#radial-gradient"/><radialGradient id="radial-gradient-3" cx="-20.6" cy="645.87" r="1" gradientTransform="matrix(15.63, 0, 0, -15.63, 356.28, 10139.72)" xlink:href="#radial-gradient"/><radialGradient id="radial-gradient-4" cx="33.53" cy="33.68" r="34.55" gradientTransform="matrix(1, 0, 0, 1, 0, 0)" xlink:href="#radial-gradient"/></defs><title>sun</title><path d="M19.94,23.76c0-5.12,6.37-9.26,14.22-9.26s14.22,4.14,14.22,9.26S42,33,34.16,33h0c-7.85,0-14.22-4.14-14.22-9.24h0" style="fill:url(#radial-gradient)"/><path d="M34.16,13.64A20.53,20.53,0,1,0,54.68,34.16,20.52,20.52,0,0,0,34.16,13.64" style="fill:url(#radial-gradient-2)"/><path d="M34.16,52.4c-5.58,0-10.56-1.75-13.89-5.71,2.91,4.6,8,6.89,13.89,6.89s11-2.29,13.89-6.89C44.72,50.65,39.73,52.4,34.16,52.4Z" style="fill:url(#radial-gradient-3)"/><polygon points="34.16 68.32 37.48 58.09 30.84 58.09 34.16 68.32" style="fill:url(#radial-gradient-4)"/><polygon points="30.84 10.23 37.48 10.23 34.16 0 30.84 10.23" style="fill:url(#radial-gradient-4)"/><polygon points="19.32 15.1 25.07 11.78 17.08 4.58 19.32 15.1" style="fill:url(#radial-gradient-4)"/><polygon points="43.24 56.54 51.24 63.74 49 53.22 43.24 56.54" style="fill:url(#radial-gradient-4)"/><polygon points="11.78 25.07 15.1 19.32 4.58 17.08 11.78 25.07" style="fill:url(#radial-gradient-4)"/><polygon points="53.22 49 63.74 51.24 56.54 43.24 53.22 49" style="fill:url(#radial-gradient-4)"/><polygon points="10.23 30.84 0 34.16 10.23 37.48 10.23 30.84" style="fill:url(#radial-gradient-4)"/><polygon points="58.09 37.48 68.32 34.16 58.09 30.84 58.09 37.48" style="fill:url(#radial-gradient-4)"/><polygon points="63.74 17.08 53.22 19.32 56.54 25.07 63.74 17.08" style="fill:url(#radial-gradient-4)"/><polygon points="4.58 51.24 15.1 49 11.78 43.24 4.58 51.24" style="fill:url(#radial-gradient-4)"/><polygon points="51.24 4.58 43.24 11.78 49 15.1 51.24 4.58" style="fill:url(#radial-gradient-4)"/><polygon points="17.08 63.74 25.07 56.54 19.32 53.22 17.08 63.74" style="fill:url(#radial-gradient-4)"/></svg>